<svg width="273" height="84" viewBox="0 0 273 84" fill="none" xmlns="http://www.w3.org/2000/svg">
<g filter="url(#filter0_d_5:124)">
<path d="M32.0988 34.796L35.9748 32.45H42.9788V36.462H36.2468V40.304H42.9788V44.282H35.9748L32.0988 41.97V34.796ZM55.5248 42.65L51.5128 40.304H44.5088V44.282H51.2408V48.158H44.6448V52H51.5128L55.5248 49.688V42.65ZM36.3828 45.812V48.158H42.9788V52H36.0768L32.0988 49.688V45.812H36.3828ZM55.5248 38.774V34.796L51.5128 32.45H44.5088V36.462H51.2408V38.774H55.5248ZM68.6522 41.936V43.602H60.6282V41.936H68.6522ZM74.1087 34.796L77.9847 32.45H84.9887V36.292H78.3927V40.304H84.9887V44.18H78.3927V52H74.1087V34.796ZM97.5347 34.796L93.5227 32.45H86.5187V36.292H93.2507V40.304H86.5187V44.18H93.2507V52H97.5347V34.796ZM110.986 41.936V43.602H102.962V41.936H110.986ZM138.169 36.292H128.377V52H123.685V36.292H114.743V32.45H138.169V36.292ZM145.783 41.936V43.602H137.759V41.936H145.783ZM151.92 32.45H162.8V36.462H156.204V40.304H162.8V44.282H156.204V52H151.92V32.45ZM175.346 52V43.908L172.15 42.242L175.346 40.712V34.796L171.334 32.45H164.33V36.462H171.062V40.304H164.33V44.282H171.062V52H175.346ZM188.482 41.936V43.602H180.458V41.936H188.482ZM193.939 32.45H198.223V52H193.939V32.45ZM211.691 41.936V43.602H203.667V41.936H211.691ZM217.148 34.796L221.024 32.45H228.028V36.292H221.432V40.304H228.028V44.18H221.432V52H217.148V34.796ZM240.574 34.796L236.562 32.45H229.558V36.292H236.29V40.304H229.558V44.18H236.29V52H240.574V34.796Z" fill="black"/>
</g>
<defs>
<filter id="filter0_d_5:124" x="0.0987549" y="0.449997" width="272.475" height="83.55" filterUnits="userSpaceOnUse" color-interpolation-filters="sRGB">
<feFlood flood-opacity="0" result="BackgroundImageFix"/>
<feColorMatrix in="SourceAlpha" type="matrix" values="0 0 0 0 0 0 0 0 0 0 0 0 0 0 0 0 0 0 127 0" result="hardAlpha"/>
<feOffset/>
<feGaussianBlur stdDeviation="16"/>
<feComposite in2="hardAlpha" operator="out"/>
<feColorMatrix type="matrix" values="0 0 0 0 0 0 0 0 0 0 0 0 0 0 0 0 0 0 0.25 0"/>
<feBlend mode="normal" in2="BackgroundImageFix" result="effect1_dropShadow_5:124"/>
<feBlend mode="normal" in="SourceGraphic" in2="effect1_dropShadow_5:124" result="shape"/>
</filter>
</defs>
</svg>
